<svg width="22" height="6" viewBox="0 0 22 6" fill="none" xmlns="http://www.w3.org/2000/svg">
<path d="M3.40182 0.333336C1.9597 0.333336 0.779785 1.53334 0.779785 3C0.779785 4.46667 1.9597 5.66667 3.40182 5.66667C4.84394 5.66667 6.02386 4.46667 6.02386 3C6.02386 1.53334 4.84394 0.333336 3.40182 0.333336ZM19.134 0.333336C17.6919 0.333336 16.512 1.53334 16.512 3C16.512 4.46667 17.6919 5.66667 19.134 5.66667C20.5762 5.66667 21.7561 4.46667 21.7561 3C21.7561 1.53334 20.5762 0.333336 19.134 0.333336ZM11.2679 0.333336C9.82581 0.333336 8.64589 1.53334 8.64589 3C8.64589 4.46667 9.82581 5.66667 11.2679 5.66667C12.71 5.66667 13.89 4.46667 13.89 3C13.89 1.53334 12.71 0.333336 11.2679 0.333336Z" fill="#8D89A5"/>
</svg>
